<svg id="Layer_1" height="512" viewBox="0 0 512 512" width="512" xmlns="http://www.w3.org/2000/svg" data-name="Layer 1"><path d="m211.315 118.809a46.669 46.669 0 0 0 -8.743 92.928c1.479.141 2.948.188 4.405.188a46.661 46.661 0 0 0 4.338-93.116zm-115 347h-96.315v-161.809h96.312v161.812zm411.412-107.37-219.118 111.7a27.832 27.832 0 0 1 -28.295-1.207l-74.25-46.19a24.046 24.046 0 0 0 -19.258-2.918l-53.428 14.189v-106.568l65.752-28.679a27.635 27.635 0 0 1 22.847-.051l135.453 58.064a22.169 22.169 0 0 1 -20.953 32.3l-68.008-29.132a8.538 8.538 0 0 0 -6.722 15.7l69.28 29.686a6.884 6.884 0 0 0 2.441.6 39.324 39.324 0 0 0 37.74-18.566 39.851 39.851 0 0 0 2.9-5.736l144.034-47.041a13.849 13.849 0 0 1 9.585 23.849zm-453.116-28.931a8.534 8.534 0 1 0 17.067 0v-.9a8.534 8.534 0 1 0 -17.067 0zm182.858-161.358a30.661 30.661 0 1 1 -30.547-33.538c.956 0 1.924.047 2.9.142a30.671 30.671 0 0 1 27.652 33.4zm113.771-86.606a1.719 1.719 0 0 0 -1.723 1.7v74.011h40.193a34.954 34.954 0 1 1 0 16.038h-40.193v73.965a1.759 1.759 0 0 0 1.723 1.742h38.47a34.978 34.978 0 1 1 0 15.991h-38.47a17.729 17.729 0 0 1 -17.722-17.736v-73.963h-25.294l.042 6.038a8.019 8.019 0 0 1 -6.211 7.878l-18.655 4.245a74.278 74.278 0 0 1 -3.394 8.349l10.385 16.086a7.987 7.987 0 0 1 -1.025 9.953l-20.725 21.038a8.044 8.044 0 0 1 -9.943 1.132l-16.224-10.142a76.63 76.63 0 0 1 -8.292 3.491l-4.028 18.727a8.063 8.063 0 0 1 -7.767 6.321l-29.513.189h-.054a8.016 8.016 0 0 1 -7.8-6.227l-4.284-18.632a88.186 88.186 0 0 1 -8.338-3.4l-16.078 10.381a8 8 0 0 1 -9.957-1.038l-21.012-20.708a8.022 8.022 0 0 1 -1.161-9.953l10.166-16.227a79.377 79.377 0 0 1 -3.507-8.3l-18.71-4.01a8.01 8.01 0 0 1 -6.316-7.783l-.2-29.482a8.017 8.017 0 0 1 6.21-7.877l18.653-4.246a74.355 74.355 0 0 1 3.394-8.349l-10.385-16.086a7.989 7.989 0 0 1 1.026-9.953l20.726-21.038a7.98 7.98 0 0 1 9.941-1.132l16.226 10.142a76.326 76.326 0 0 1 8.292-3.491l4.026-18.727a8.016 8.016 0 0 1 7.769-6.321l29.511-.188h.055a7.968 7.968 0 0 1 7.8 6.226l4.283 18.633a88.432 88.432 0 0 1 8.34 3.4l16.083-10.377a8 8 0 0 1 9.958 1.037l21.01 20.708a8.013 8.013 0 0 1 1.161 9.954l-10.164 16.226a83.071 83.071 0 0 1 3.506 8.255l18.71 4.057a8 8 0 0 1 6.315 7.736l.051 7.453h25.4v-74.017a17.719 17.719 0 0 1 17.722-17.69h38.47a34.978 34.978 0 1 1 0 15.991z" fill-rule="evenodd"/></svg>