<?xml version="1.0" encoding="UTF-8"?>
<!DOCTYPE svg PUBLIC "-//W3C//DTD SVG 1.1//EN" "http://www.w3.org/Graphics/SVG/1.1/DTD/svg11.dtd">
<!-- Creator: CorelDRAW -->
<svg xmlns="http://www.w3.org/2000/svg" xml:space="preserve" width="0.995287in" height="1.01032in" version="1.1" style="shape-rendering:geometricPrecision; text-rendering:geometricPrecision; image-rendering:optimizeQuality; fill-rule:evenodd; clip-rule:evenodd"
viewBox="0 0 162.9 165.36"
 xmlns:xlink="http://www.w3.org/1999/xlink"
 xmlns:xodm="http://www.corel.com/coreldraw/odm/2003">
 <defs>
  <style type="text/css">
   <![CDATA[
    .fil0 {fill:black}
   ]]>
  </style>
 </defs>
 <g id="Layer_x0020_1">
  <metadata id="CorelCorpID_0Corel-Layer"/>
  <path class="fil0" id="img1-fill" d="M76.26 148.82l10.37 0 0 10.37 -10.37 0 0 -10.37zm76.08 3.46l4.32 0 0 4.32 -4.32 0 0 -4.32zm-146.11 0l4.32 0 0 4.32 -4.32 0 0 -4.32zm140.06 -3.46l0 2.59 -34.58 0 2.58 -1.74c7.59,-4.21 7.31,-3.08 15.38,-9.69 7.06,-5.78 4.37,-3.26 9.98,-9.91 2.1,-2.49 2.64,-2.84 4.59,-5.79l7.25 -12.64 0 34.58c-3.5,0 -5.19,-0.48 -5.19,2.59zm-134.87 -36.31c0.13,0.16 0.33,0.21 0.38,0.49l6.69 11.46c5.16,7.58 12.45,14.63 20.07,19.7l12.08 6.94c0.12,0.06 0.38,0.19 0.55,0.31l-34.58 0c0,-5.49 0.3,-5.19 -5.19,-5.19l0 -33.72zm66.57 25.07c4.61,-0.38 26.04,-9.85 31.99,-11.24 0.81,3.49 1.74,4.9 2.93,8.31 1.21,3.47 1.63,5.28 3.13,8.11 -4.25,0.99 -7.41,4.07 -23.34,7.78 0,-4.08 -0.15,-3.87 -0.86,-6.92l-12.1 0c-1.03,-2.14 -1.36,-3.19 -1.73,-6.05zm3.46 -34.58c-5.01,0 -7.23,-7.78 0.86,-7.78 4.78,0 3.59,7.78 -0.86,7.78zm-9.51 -38.91l26.05 20.64c3.16,2.52 5.83,5.15 9.4,7.03 -1.75,7.52 -3.46,1.89 -3.46,16.43 0,5.87 2.99,7.32 3.46,12.97l-16.06 5.55c-2.89,1.12 -4.56,1.7 -7.61,2.76 -3.4,1.18 -4.85,2.12 -8.31,2.93 -2.07,-8.89 -8.03,-19.91 -18.16,-20.75 0,-5.77 3.03,-17.3 4.11,-22.7 1.54,-7.68 2.84,-14.99 4.54,-22.26l4.69 11.74c1.65,4.27 2.93,8.9 4.82,12.47 -10.98,7.35 0.88,23.63 11.79,16.11 5.88,-4.06 6.36,-17.84 -6.6,-17.84l-8.65 -25.07zm34.58 -37.18c-1.42,17.08 -37.77,-3.43 -44.28,17.11 -0.99,3.13 -0.38,8.68 -0.72,13.12 -0.26,3.52 -1.43,7.79 -2.2,11.63 -1.62,8.08 -3.08,15.42 -4.61,23.06l-4.39 23.27c5.01,2.65 11.28,1.09 15.72,9.35 1.39,2.59 6.51,16.17 6.76,19.18 -2.64,0.95 -0.88,-1.35 -2.26,2.06 -0.59,1.45 -0.33,3.25 -0.33,4.85 -15.89,-3.7 -30.17,-8.68 -41.25,-21.87 -19.9,-23.68 -23.84,-56.42 -7.01,-82.59 12.09,-18.8 26.99,-26.33 48.26,-31.28 0,4.08 0.15,3.87 0.86,6.92 6.27,1.46 14.48,1.46 20.75,0 0.71,-3.05 0.86,-2.84 0.86,-6.92 13.6,3.17 10.73,1.92 23.07,8.06 7.9,3.93 11.94,8.37 17.8,14.19 29.97,29.79 19.5,84.95 -13.2,102.25 -0.45,-5.35 -11.24,-29.04 -11.24,-32.85 0,-7.65 3.5,-9.88 6.05,-14.7 -3.18,-3.66 -7.2,-6.49 -11.13,-9.62 -3.72,-2.96 -33.49,-27.63 -36.43,-28.42 0,-10.16 0.76,-13.83 15.56,-13.83 8.81,0 29.4,4.42 29.4,-13.83 -2.96,0.07 -3.36,0.58 -6.05,0.86zm-30.26 -20.75l10.37 0 0 10.37 -10.37 0 0 -10.37zm35.45 7.78l34.58 0c0,5.49 -0.3,5.19 5.19,5.19l0 33.72c-6.38,-7.34 -6.65,-21.05 -36.62,-36.86l-3.15 -2.04zm-100.29 38.91l0 -33.72c5.49,0 5.19,0.3 5.19,-5.19l34.58 0c-0.16,0.13 -0.41,0.12 -0.49,0.38l-11.63 6.52c-10.05,6.65 -17.75,15.06 -23.83,25.45 -0.87,1.49 -1,1.91 -1.79,3.4l-2.03 3.16zm140.93 -44.09l4.32 0 0 5.19 -4.32 0 0 -5.19zm-146.11 0l4.32 0 0 5.19 -4.32 0 0 -5.19zm63.98 -5.19l0 4.32 -53.6 0c0,-6.29 -0.51,-5.19 -12.97,-5.19 -4.84,0 -3.46,6.73 -3.46,13.83 0,3.07 1.69,2.59 5.19,2.59l0 127.09c-6.34,0 -5.19,-1.14 -5.19,12.97 0,4.84 6.73,3.46 13.83,3.46 3.07,0 2.59,-1.68 2.59,-5.19l53.6 0c0,9.46 -1.03,7.78 19.02,7.78 4.23,0 3.46,-4.57 3.46,-7.78l53.6 0c0,6.34 -1.14,5.19 12.97,5.19 4.84,0 3.46,-6.73 3.46,-13.83 0,-3.07 -1.68,-2.59 -5.19,-2.59l0 -127.09c6.34,0 5.19,1.14 5.19,-12.97 0,-4.69 -6.05,-3.46 -12.1,-3.46 -4.26,0 -4.32,0.94 -4.32,5.19l-53.6 0c0,-9.46 1.03,-7.78 -19.02,-7.78 -2.02,0 -3.46,1.43 -3.46,3.46z"/>
 </g>
</svg>
