<?xml version="1.0" encoding="UTF-8"?>
<!DOCTYPE svg PUBLIC "-//W3C//DTD SVG 1.1//EN" "http://www.w3.org/Graphics/SVG/1.1/DTD/svg11.dtd">
<!-- Creator: CorelDRAW -->
<svg xmlns="http://www.w3.org/2000/svg" xml:space="preserve" width="0.638232in" height="0.680555in" version="1.1" style="shape-rendering:geometricPrecision; text-rendering:geometricPrecision; image-rendering:optimizeQuality; fill-rule:evenodd; clip-rule:evenodd"
viewBox="0 0 290.87 310.16"
 xmlns:xlink="http://www.w3.org/1999/xlink"
 xmlns:xodm="http://www.corel.com/coreldraw/odm/2003">
 <defs>
  <style type="text/css">
   <![CDATA[
    .fil0 {fill:black}
   ]]>
  </style>
 </defs>
 <g id="Layer_x0020_1">
  <metadata id="CorelCorpID_0Corel-Layer"/>
  <path class="fil0" d="M151.37 211.41c0.54,-1.08 2.64,-2.3 3.9,-3.18l4.07 -2.89c0.47,-0.33 0.74,-0.54 1.11,-0.78 0.22,-0.15 0.37,-0.22 0.59,-0.36l4.41 -3.18c0.09,-0.06 0.55,-0.35 0.58,-0.37l49.27 -34.97c5.27,-3.62 10.96,-7.77 16.11,-11.4l20.05 -14.19c1.26,-0.95 2.71,-1.96 4.03,-2.88l23.87 -16.93 -0 81.95c-0.4,0.97 -0.95,1.09 -1.79,1.68l-62.04 43.99c-1.48,0.97 -2.58,1.81 -4.08,2.88l-12 8.55c-12.72,9.43 -27.17,18.79 -39.86,28.22 -1.47,1.09 -6.8,5.04 -8.21,5.64l0 -81.78zm-127.42 -18.51c0.65,0.15 0.13,-0.1 0.98,0.42 0.29,0.18 0.46,0.31 0.78,0.53l13.69 9.74c0.89,0.63 1.72,1.25 2.95,2.1l67.05 47.52c2.17,1.63 4.08,2.98 6.1,4.33l4.45 3.16c0.7,0.49 0.91,0.63 1.56,1.16l-0.01 -44.63 -97.56 -69.14 0 44.81zm-12.43 -72.6l80.28 56.82c6.06,4.6 13.67,9.54 20,14.18l27.8 19.8 0 82.15 -72.5 -51.24c-2.73,-1.89 -5.35,-3.74 -7.96,-5.65l-31.84 -22.59c-1.47,-1 -2.45,-1.75 -4.06,-2.87 -0.8,-0.56 -1.23,-0.9 -1.98,-1.47 -1.66,-1.28 -8.93,-5.7 -9.71,-7.19l-0.02 -81.94zm27.78 -28.36c8.39,-5.77 16.93,-12.26 25.42,-18.27 0.36,-0.26 0.49,-0.34 0.91,-0.65 0.07,-0.05 0.29,-0.21 0.36,-0.26l4.43 -3.18c1.3,-0.92 6.75,-4.66 7.54,-5.65 1.27,0.45 4.84,3.14 6.31,4.25l26.3 18.65c3.5,2.23 9.6,7.08 12.25,8.66 1.3,0.78 2.64,1.9 4.04,2.89 7.01,5 18.04,12.44 24.28,17.19l4.1 2.9c6.6,4.47 12.99,9.42 20.25,14.3l8.05 5.79c6.26,4.59 14.88,10.21 20.35,14.47 1.1,0.86 2.59,1.95 3.96,2.68 -0.89,1.17 -6.18,4.69 -7.76,5.84l-23.19 16.7c-9.64,6.93 -21.94,16.16 -31.08,22.37 -1.51,-0.55 -6.37,-4.32 -8.26,-5.63l-24.23 -17.18c-2.7,-1.87 -5.49,-3.95 -8.18,-5.79l-24.21 -17.21c-2.68,-1.92 -5.39,-3.82 -8.17,-5.79l-56.71 -40.14 23.26 -16.93zm225.74 8.25c-15.82,-0.86 -33.88,-0.43 -49.92,-1.06 -8.69,-0.34 -6.98,1.46 -13.33,-3.49 -2.97,-2.32 -6.6,-4.6 -10.01,-7.1 -9.24,-6.78 -20.6,-14.15 -29.45,-20.88 -6.03,-4.58 -13.79,-9.59 -19.81,-14.05l-29.46 -20.87c-4.97,-3.39 -28.46,-19.99 -29.35,-21.03 5.62,0.22 11.21,0.18 16.85,0.36l16.45 0.35c5.58,0.17 18.78,0.17 24.71,0.54 1.46,0.09 3.4,1.93 5.15,3.09l34.6 24.56c6.94,4.52 17.37,12.4 24.61,17.47l56.49 40.04c1.39,0.99 1.65,0.78 2.48,2.06zm-120.66 209.97l2.55 0 0.72 -0.36c2.07,-1.02 3.98,-2.61 5.86,-3.97l6.13 -4.32c10.4,-7.05 23.25,-16.54 33.88,-24.04l3.34 -2.34c0.06,-0.04 0.13,-0.09 0.19,-0.13 0.08,-0.05 0.3,-0.22 0.37,-0.27l48.31 -34.27c4.02,-2.77 8.73,-6.12 12.43,-8.8l24.62 -17.46c8.27,-5.87 8,-4.46 8,-12.92 -0,-27.96 0,-55.91 0,-83.87 0,-6.61 1.15,-12.44 -4.61,-16.62l-36.83 -26.14c-4.47,-3.09 -8.13,-5.86 -12.42,-8.76 -4.1,-2.78 -8.24,-5.73 -12.21,-8.68l-24.66 -17.47c-8.31,-5.92 -16.49,-11.83 -24.6,-17.46 -8.67,-6.03 -15.99,-11.59 -24.67,-17.45 -2.39,-1.62 -3.68,-3.24 -7.5,-3.26 -3.43,-0.01 -6.75,-0.16 -10.14,-0.27 -9.22,-0.32 -59.69,-0.67 -61.39,-1.3l-7.67 0c-1.4,0.8 -1.98,0.55 -3.17,1.84 -3.16,3.44 -1.23,7.04 2.31,9.52l34.7 24.64c-2.61,2.28 -6.2,4.54 -9.31,6.85 -3.34,2.47 -6.04,4.41 -9.63,6.49l-18.79 13.5c-12.81,9.19 -25.04,18.2 -37.52,27.05 -6.15,4.36 -12.14,8.93 -18.76,13.51 -4.33,2.99 -3.78,6.17 -3.78,12.44l0 80.39c0,5.36 -0.96,9.49 2.4,13.81l51.93 37.02c1.68,1.16 2.81,2.04 4.63,3.27 7.14,4.81 15.39,11.07 22.59,16.04l3.9 2.75c0.05,0.04 0.13,0.09 0.18,0.13l10 7.09c0.47,0.32 0.71,0.47 1.14,0.76 3.25,2.23 6.25,4.49 9.44,6.7l16.66 11.83c0.64,0.47 1.39,0.95 2.21,1.56l14.09 9.97c1.1,0.74 1.41,1.14 2.43,1.7l1.95 0.93c0.16,0.08 0.4,0.33 0.45,0.25 0.04,-0.07 0.15,0.08 0.23,0.13z"/>
 </g>
</svg>
