<?xml version="1.0" encoding="UTF-8"?>
<!DOCTYPE svg PUBLIC "-//W3C//DTD SVG 1.1//EN" "http://www.w3.org/Graphics/SVG/1.1/DTD/svg11.dtd">
<!-- Creator: CorelDRAW -->
<svg xmlns="http://www.w3.org/2000/svg" xml:space="preserve" width="0.473232in" height="0.614516in" version="1.1" style="shape-rendering:geometricPrecision; text-rendering:geometricPrecision; image-rendering:optimizeQuality; fill-rule:evenodd; clip-rule:evenodd"
viewBox="0 0 74.59 96.86"
 xmlns:xlink="http://www.w3.org/1999/xlink"
 xmlns:xodm="http://www.corel.com/coreldraw/odm/2003">
 <defs>
  <style type="text/css">
   <![CDATA[
    .fil0 {fill:black}
   ]]>
  </style>
 </defs>
 <g id="Layer_x0020_1">
  <metadata id="CorelCorpID_0Corel-Layer"/>
  <path class="fil0" d="M3.46 24.22l17.95 0c0.52,0 1.3,-0.78 1.3,-1.3l0 -19.46 48.22 0 0 89.95 -67.46 0 0 -69.19zm40.65 18.16c0.91,0.24 3.43,2.53 4.45,3.33 0.78,0.61 1.33,1.14 2.13,1.76l8.68 7.11c2.79,2.18 2.04,0.71 2.04,9.42l-46.05 0c0.34,-0.51 0.51,-0.57 0.92,-1.03l14 -15.4c0.98,0.66 5.97,5.86 7.51,7.4 0.7,0.7 1.68,2.11 2.86,2.11 1.05,0 1.73,-0.68 1.73,-1.73 0,-1.17 -1.32,-2.07 -2,-2.76 -0.84,-0.84 -1.6,-1.8 -2.54,-2.43l5.48 -6.63c0.52,-0.6 0.59,-0.37 0.79,-1.15zm-33.51 37.19c0,1.05 0.68,1.73 1.73,1.73l38.05 0c2.32,0 2.32,-3.46 0,-3.46l-38.05 0c-1.05,0 -1.73,0.68 -1.73,1.73zm0 -6.92c0,1.05 0.68,1.73 1.73,1.73l38.05 0c2.32,0 2.32,-3.46 0,-3.46l-38.05 0c-1.05,0 -1.73,0.68 -1.73,1.73zm9.51 -34.59c0,-3.34 5.19,-3.34 5.19,0 0,3.34 -5.19,3.34 -5.19,0zm-9.51 48.43c0,1.05 0.68,1.73 1.73,1.73l19.89 0c2.32,0 2.32,-3.46 0,-3.46l-19.89 0c-1.05,0 -1.73,0.68 -1.73,1.73zm6.05 -48.65c0,3.79 2.86,6.27 5.41,6.27l1.3 0c2.53,0 5.41,-2.87 5.41,-5.41l0 -1.3c0,-2.55 -2.48,-5.41 -6.27,-5.41 -3.14,0 -5.84,2.7 -5.84,5.84zm18.81 9.73c-3.31,-2.22 -4.11,-6.85 -7.72,-2.53l-2.07 2.26c-0.49,0.51 -0.53,0.7 -0.97,1.19 -3.44,3.91 -8.23,8.68 -11.73,12.7l0 -30.05 48.43 0 0 20.32c-0.78,-0.21 -3.55,-2.74 -4.26,-3.31 -0.79,-0.64 -1.34,-1.13 -2.14,-1.76l-8.46 -6.89c-3.68,-3.12 -3.48,-0.92 -9.1,5.52 -0.68,0.78 -1.53,1.66 -1.99,2.55zm-25.95 -18.16l0 36.76c0,0.52 0.78,1.3 1.3,1.3l52.32 0c1.05,0 1.73,-0.68 1.73,-1.73l0 -36.32c0,-1.05 -0.68,-1.73 -1.73,-1.73l-51.89 0c-1.05,0 -1.73,0.68 -1.73,1.73zm9.73 -23.78l0 15.13 -13.19 0c0.32,-0.47 0.42,-0.5 0.81,-0.92l4.78 -5.6c0.34,-0.42 0.59,-0.59 0.95,-1l1.59 -1.87c0.39,-0.5 0.37,-0.49 0.79,-0.94 0.89,-0.93 3.53,-4.32 4.27,-4.81zm-19.24 17.3l0 72.65c0,0.52 0.78,1.3 1.3,1.3l71.78 0c1.09,0 1.51,-1.6 1.51,-2.81l0 -91.24c0,-1.21 -0.42,-2.81 -1.51,-2.81l-52.97 0c-1.34,0 -2.09,1.51 -2.87,2.32l-2.48 2.92c-0.95,0.97 -1.62,1.86 -2.5,2.91 -0.86,1.03 -1.75,1.85 -2.53,2.88l-8.7 10.11c-0.51,0.54 -1.03,0.8 -1.03,1.78z"/>
 </g>
</svg>
