<?xml version="1.0" encoding="UTF-8"?>
<!DOCTYPE svg PUBLIC "-//W3C//DTD SVG 1.1//EN" "http://www.w3.org/Graphics/SVG/1.1/DTD/svg11.dtd">
<!-- Creator: CorelDRAW -->
<svg xmlns="http://www.w3.org/2000/svg" xml:space="preserve" width="0.657472in" height="0.657472in" version="1.1" style="shape-rendering:geometricPrecision; text-rendering:geometricPrecision; image-rendering:optimizeQuality; fill-rule:evenodd; clip-rule:evenodd"
viewBox="0 0 97.65 97.65"
 xmlns:xlink="http://www.w3.org/1999/xlink"
 xmlns:xodm="http://www.corel.com/coreldraw/odm/2003">
 <defs>
  <style type="text/css">
   <![CDATA[
    .fil0 {fill:black}
   ]]>
  </style>
 </defs>
 <g id="Layer_x0020_1">
  <metadata id="CorelCorpID_0Corel-Layer"/>
  <g id="_1995106115776">
   <path class="fil0" d="M3.24 92.12l0 -28.04c0,-1.13 0.37,-2.1 1.53,-2.1l55.5 0c0.92,0 1.53,0.6 1.53,1.53l0 29.18c0,1.36 -1.11,1.72 -2.48,1.72l-53.78 0c-1.57,0 -2.29,-0.72 -2.29,-2.29zm-3.24 -28.8l0 29.56c0,1.91 1.13,3.54 2.72,4.33 0.56,0.28 1.26,0.44 2.04,0.44l55.88 0c2.8,0 4.58,-2.64 4.58,-5.91l0 -27.46c0,-3.12 -1.93,-5.72 -4.77,-5.72l-55.88 0c-2.04,0 -4.58,2.02 -4.58,4.77z"/>
   <path class="fil0" d="M25.94 5.53l0 47.68c0,2.81 3.4,2.9 3.45,0.01l-0.01 -45.02c0,-2.63 -0.61,-4.96 2.1,-4.96l60.65 0c1.44,0 2.06,0.57 2.25,1.76l0.04 53.55c-0,1.64 -0.26,2.67 1.02,3.19 0.99,0.4 2.22,-0.22 2.22,-1.47l0 -55.5c0,-2.63 -2.14,-4.77 -4.77,-4.77l-62.36 0c-1.44,0 -2.54,0.88 -3.3,1.66 -0.87,0.9 -1.28,2.18 -1.28,3.87z"/>
   <path class="fil0" d="M9.73 49.4l0 -0.57 3.24 0 0 1.53c0,1.91 -3.24,2.87 -3.24,-0.95zm0 -4.39l0 -34.71c0,-0.88 1.07,-0.57 3.24,-0.57l0 35.85c-2.17,0 -3.24,0.31 -3.24,-0.57zm1.53 -39.48c0.47,0.34 0.41,0.26 0.57,0.95l-0.95 0c0.21,-0.39 0.26,-0.45 0.38,-0.95zm-4.77 2.86l0 42.34c0,2.23 2.16,4.58 4.39,4.58 1.87,0 2.99,-0.18 4.33,-1.77 0.87,-1.03 1.2,-2.31 1.2,-4.14l0 -40.43c0,-1.76 -1.29,-3.73 -1.97,-5.09 -1.04,-2.09 -1.49,-3.88 -3.18,-3.88 -0.95,0 -1.39,0.87 -1.72,1.52 -0.77,1.52 -3.05,5.67 -3.05,6.87z"/>
   <path class="fil0" d="M92.12 94.4l-8.2 0c-1.37,0 -2.48,-0.36 -2.48,-1.72l0 -22.7c0,-0.92 0.6,-1.53 1.53,-1.53l10.11 0c0.41,0 0.83,0.38 1.02,0.7 0.2,0.34 0.32,0.9 0.32,1.4l0 21.55c0,1.57 -0.72,2.29 -2.29,2.29zm-0 3.24l-9.53 0c-2.8,0 -4.58,-2.61 -4.58,-5.91l0 -20.98c0,-3.24 2.06,-5.72 4.77,-5.72l9.92 0c2.52,0 4.96,2.12 4.96,4.58l0 23.27c0,1.96 -1.23,3.67 -2.85,4.39 -0.44,0.2 -1.44,0.31 -2.68,0.38z"/>
   <path class="fil0" d="M16.4 78c-4.36,0 -4.36,-6.29 0,-6.29 4.05,0 4.05,6.29 0,6.29zm-6.67 -3.24c0,8.72 12.88,8.8 13.13,0.17 0.1,-3.55 -2.99,-6.66 -6.64,-6.66 -3.44,0 -6.48,3.03 -6.48,6.48z"/>
   <path class="fil0" d="M45.58 22.7c-4.01,0 -4.74,-6.29 0.38,-6.29 3.48,0 4.01,6.29 -0.38,6.29zm-6.48 -3.62c0,2.17 0.32,3.59 1.92,5.13 4.72,4.54 11.04,0.05 11.04,-3.99 0,-2.12 -0.21,-3.79 -1.99,-5.44 -4.44,-4.11 -10.98,-0.54 -10.98,4.3z"/>
   <path class="fil0" d="M30.9 87.92l23.08 0c0.23,0 0.74,-0.31 0.89,-0.45 0.65,-0.59 1.12,-2.99 -2.03,-2.99l-20.98 0c-3.77,0 -2.84,3.43 -0.95,3.43z"/>
   <path class="fil0" d="M39.1 47.11c0,1.02 0.45,1.72 1.53,1.72l22.89 0c2.15,0 2.15,-3.24 0,-3.24l-22.89 0c-0.92,0 -1.53,0.6 -1.53,1.53z"/>
   <path class="fil0" d="M58.55 53.78l0.45 1.08c0.29,0.32 0.53,0.45 1.08,0.45l20.03 0c1.61,0 1.95,-3.24 -0.38,-3.24l-19.83 0c-0.69,0 -1.33,0.93 -1.33,1.72z"/>
   <path class="fil0" d="M65.03 21.17c0,1.08 1.09,1.72 2.29,1.72l15.45 0c2.36,0 2.8,-3.43 -0.19,-3.43l-15.45 0c-1.22,0 -2.1,0.64 -2.1,1.72z"/>
   <path class="fil0" d="M65.03 14.49c0,1.3 0.97,1.91 2.29,1.91 2.3,0 12.24,0.34 13.35,-0.38 1.35,-0.88 0.73,-3.06 -0.96,-3.06l-12.97 0c-0.85,0 -1.72,0.77 -1.72,1.53z"/>
   <path class="fil0" d="M68.28 60.27c0,1.36 1.46,1.72 2.67,1.72 2.26,0 11.87,0.34 12.97,-0.38 1.35,-0.88 0.73,-3.05 -0.96,-3.05l-12.97 0c-0.96,0 -1.72,0.83 -1.72,1.72z"/>
   <path class="fil0" d="M31.09 78.19l12.4 0c2.83,0 2.83,-3.43 0,-3.43l-12.01 0c-3.15,0 -2.63,3.43 -0.38,3.43z"/>
   <path class="fil0" d="M39.1 37c0,0.87 0.18,2.1 1.34,2.1l13.54 0c0.23,0 0.74,-0.31 0.89,-0.45 0.65,-0.59 1.12,-2.99 -2.03,-2.99l-11.25 0c-1.07,0 -2.48,0.37 -2.48,1.34z"/>
   <path class="fil0" d="M68.28 46.92c0,0.81 0.59,1.91 1.33,1.91l13.73 0c1.73,0 1.67,-3.24 0,-3.24l-13.73 0c-0.5,0 -1.33,1.01 -1.33,1.33z"/>
   <path class="fil0" d="M39.1 53.59c0,1.02 0.45,1.72 1.53,1.72l13.16 0c2.06,0 2.06,-3.24 0,-3.24l-13.16 0c-0.92,0 -1.53,0.6 -1.53,1.53z"/>
   <path class="fil0" d="M31.47 71.71l8.77 0c2.83,0 2.83,-3.43 0,-3.43l-9.15 0c-2.25,0 -2.77,3.43 0.38,3.43z"/>
   <path class="fil0" d="M87.92 84.68c3.5,0 4.55,-5.04 1.21,-6.36 -4.8,-1.89 -6.52,6.36 -1.21,6.36z"/>
   <path class="fil0" d="M68.28 73.24c0,2.22 3.35,1.72 4.77,1.72 2.48,0 2.48,-3.43 0,-3.43 -1.42,0 -4.77,-0.5 -4.77,1.72z"/>
   <path class="fil0" d="M68.28 66.75c0,0.41 0.36,1.03 0.65,1.26 0.63,0.5 6.03,1.29 6.03,-1.26 0,-2.67 -5.57,-1.71 -6.06,-1.3 -0.29,0.24 -0.61,0.86 -0.61,1.3z"/>
   <path class="fil0" d="M68.28 95.74c0,1.3 0.63,1.76 1.6,1.91l3.36 0c2.35,0 1.85,-3.24 0.38,-3.24l-4.01 0c-0.5,0 -1.33,1.01 -1.33,1.33z"/>
  </g>
 </g>
</svg>
