<?xml version="1.0" encoding="UTF-8"?>
<!DOCTYPE svg PUBLIC "-//W3C//DTD SVG 1.1//EN" "http://www.w3.org/Graphics/SVG/1.1/DTD/svg11.dtd">
<!-- Creator: CorelDRAW -->
<svg xmlns="http://www.w3.org/2000/svg" xml:space="preserve" width="0.876008in" height="0.78728in" version="1.1" style="shape-rendering:geometricPrecision; text-rendering:geometricPrecision; image-rendering:optimizeQuality; fill-rule:evenodd; clip-rule:evenodd"
viewBox="0 0 876.01 787.28"
 xmlns:xlink="http://www.w3.org/1999/xlink"
 xmlns:xodm="http://www.corel.com/coreldraw/odm/2003">
 <defs>
  <style type="text/css">
   <![CDATA[
    .fil0 {fill:#0074FF}
   ]]>
  </style>
 </defs>
 <g id="Layer_x0020_1">
  <metadata id="CorelCorpID_0Corel-Layer"/>
  <path class="fil0" d="M-0 184.28l0 38.33c2.56,5.03 2.69,10.21 3.68,15.72 2.35,13.08 8.56,29.3 15.5,39.38 36,52.34 99.13,63.84 97.04,117.53 -1.59,40.99 -40.56,60.8 -64.79,79.93 -51.77,40.85 -43.59,75.35 -51.43,92.21l0 31.85c2.52,5.77 3.07,15.01 4.89,21.37 23.6,82.79 131.62,138.36 209.22,157.36 11.44,2.8 40.46,5.91 47.77,9.32l51.39 0c5.65,-2.17 54.29,-6.65 67.04,-9.34 122.01,-25.71 236.97,-121.87 282.06,-243.01 16.82,-45.2 21.28,-72.97 25.58,-124.54 1.65,-19.83 19.93,-33.42 29.49,-45.46 11.32,-14.26 22.8,-26.53 34.18,-40.83 32.92,-41.39 90.15,-103.81 113.11,-150.27l11.29 -26.35 0 -13.66c-4.59,-5.71 -4.51,-8.11 -12.56,-11.34 -27.21,-10.93 -82.72,36.52 -101.05,50.62l-99.57 79.26 -11.83 -27.07c-11.7,-23.18 -28.03,-48.25 -42.78,-68.87 -11.44,-15.99 -40.95,-47.1 -55.09,-58.26 -42.49,-33.52 -55.37,-45.61 -115.89,-70.73 -65.63,-27.24 -111.78,-23.9 -121.93,-27.43l-40.37 0c-11.37,4.96 -87.69,3.19 -173.87,56.2 -35.68,21.94 -38.38,26.81 -62.87,52.13 -28.23,29.19 -35.22,70.28 -38.22,75.94zm92.39 45.23c0,58.52 74.48,97.5 121.92,50.06 50.52,-50.52 3.79,-120.21 -43.22,-120.21 -16.16,0 -24.32,-0.85 -39.26,6.93 -21.45,11.17 -39.44,35.48 -39.44,63.22zm34.22 3.42c0,-58.69 75.28,-48.41 75.28,-6.85 0,58.7 -75.28,48.41 -75.28,6.85zm314.81 54.75c0,41.5 35.28,71.86 70.15,71.86 38.25,0 70.89,-29.91 72.39,-67.41 0.88,-22.09 -6.44,-37.31 -17.37,-50.93 -23.67,-29.5 -73.81,-33.3 -105.11,-1.89 -10.82,10.87 -20.07,27.37 -20.07,48.37zm33.65 3.34c0,-12.5 1.15,-18.98 9.76,-27.88 24.88,-25.71 65.53,-4.95 65.53,19.33 0,15.06 1.12,19.99 -9.77,31.3 -23.83,24.75 -65.51,7.49 -65.51,-22.74zm-362.15 287.52c0,40.38 31.53,71.86 71.86,71.86 39.87,0 70.3,-32.48 71.16,-70.36 0.87,-38.42 -31.93,-71.65 -71.16,-71.65 -38.94,0 -71.86,31.44 -71.86,70.15zm75.29 37.64l-8.56 0c-16.39,0 -32.51,-16.12 -32.51,-32.51l0 -8.56c0,-16.41 16.52,-32.51 32.51,-32.51l8.56 0c44.87,0 44.93,73.57 0,73.57zm164.25 -369.56c22.06,0 38.61,-8.61 50.93,-20.93 44.93,-44.93 12.59,-121.08 -50.93,-121.08 -58.27,0 -90.13,65.31 -59.17,110.5 1.86,2.71 1.86,2.24 3.86,4.7 13.71,16.9 32.14,26.81 55.31,26.81zm-37.64 -68.44c0,-12.5 1.15,-18.98 9.76,-27.88 24.88,-25.71 65.53,-4.95 65.53,19.33 0,15.06 1.12,19.99 -9.77,31.3 -23.83,24.75 -65.51,7.49 -65.51,-22.74zm9.17 482.73c47.57,3.24 79.46,9.49 118.72,-14 17.18,-10.28 25.39,-17.56 35.79,-34.25 9.27,-14.88 15.46,-30.39 20.66,-48.89 -2.77,-3.75 -6.37,-6.7 -11.01,-11.83l-37.59 -37.46c-11.31,-10.89 -11.38,-17.9 -33.5,-11.77 -68.57,19.01 -58.47,78.8 -76.04,124.03 -5.27,13.57 -12.43,22.82 -17.03,34.17zm141.44 -179.47l50.39 52.13c9.12,-4.64 13.87,-12.15 21.85,-20.08 4.34,-4.31 6.14,-5.2 10.04,-9.95 11.48,-14 16.2,-16.22 30.25,-33.15l51.68 -54.91c4.16,-4.48 4.94,-7.5 9.68,-12.05l29.45 -33.89c26.4,-28.75 60.72,-72.3 87.29,-102.74 13.48,-15.44 25.58,-31.8 37.55,-47.44 9.65,-12.63 28.37,-35.72 34.4,-51.4 -23.05,9.59 -120.11,90.56 -143.5,110.64 -8.51,7.31 -14.63,12.87 -22.41,19.26 -4.33,3.56 -6.75,6.93 -11.05,10.55l-185.63 173.02zm186.06 -39.89c-5.72,3.13 -50.36,54.31 -62.94,66.15 -7.1,6.68 -13.73,15.35 -20.58,22.81 -10.02,10.91 -33.71,31.12 -38.11,46.92 -18.24,65.48 -60.96,112 -138.43,119.87 -39.3,3.99 -77.97,-3.32 -114.28,-15.76 -14.18,-4.86 -19.76,-8.86 -17.26,-26.68 23.93,-19.81 38.36,1.05 50.37,-42.25 13.87,-50 15.55,-96.12 61.87,-126.5 19.82,-13 57.7,-17.2 68.23,-26.73 8.15,-7.38 14.98,-15.79 22.97,-23.7l60.46 -56.17c4.95,-4.43 9.02,-6.93 13.44,-11.61 5.27,-5.58 7.12,-6.63 12.29,-11.07 4.57,-3.93 7.17,-7.53 11.87,-11.4 5.22,-4.3 7.11,-5.59 12.28,-11.07 8.88,-9.4 56.25,-48.98 62.29,-57.47 -16.8,-50.45 -60.57,-118.8 -102.74,-152.07 -7.63,-6.02 -14.15,-12.67 -22.73,-18.91 -84.16,-61.18 -183.89,-90.34 -299.9,-60.21 -76.78,19.94 -180.51,78.54 -177.81,162.82 1.79,55.93 39.33,77.08 69.07,101.49 15.79,12.96 30.3,23.67 40.11,44.94 10.02,21.7 8.22,51.89 0.48,74.61 -7.76,22.78 -23.82,34.75 -38.39,46.62 -33.74,27.49 -69.03,45.04 -71.05,99.25 -3.87,103.52 142.54,172.84 248.48,178.76 46.26,2.59 106.14,-9.7 144.55,-25.61 65.51,-27.13 102.65,-54.74 147.73,-107.24 38.06,-44.33 73.16,-117.88 77.76,-179.79z"/>
 </g>
</svg>
