<?xml version="1.0" encoding="UTF-8"?>
<!DOCTYPE svg PUBLIC "-//W3C//DTD SVG 1.1//EN" "http://www.w3.org/Graphics/SVG/1.1/DTD/svg11.dtd">
<!-- Creator: CorelDRAW -->
<svg xmlns="http://www.w3.org/2000/svg" xml:space="preserve" width="0.947272in" height="0.786575in" version="1.1" style="shape-rendering:geometricPrecision; text-rendering:geometricPrecision; image-rendering:optimizeQuality; fill-rule:evenodd; clip-rule:evenodd"
viewBox="0 0 1450.61 1204.53"
 xmlns:xlink="http://www.w3.org/1999/xlink"
 xmlns:xodm="http://www.corel.com/coreldraw/odm/2003">
 <defs>
  <style type="text/css">
   <![CDATA[
    .fil0 {fill:#0074FF}
   ]]>
  </style>
 </defs>
 <g id="Layer_x0020_1">
  <metadata id="CorelCorpID_0Corel-Layer"/>
  <path class="fil0" d="M52.79 1060.75c-4.32,-22.59 -1.52,-235.55 -1.52,-277.04 0,-92.35 0,-184.7 0,-277.04 0,-86.09 -18.14,-171.48 65.53,-211.64 34.03,-16.34 85.21,-10.94 126.58,-10.94l970.56 0c43.57,0 88.91,-5.29 124.14,13.36 79.56,42.12 60.73,129.62 60.73,216.46l0 416.48c0,85.84 17.96,172.38 -64.86,212.36 -34.12,16.47 -85.89,11.14 -127.25,11.14 -323.52,0 -647.04,0 -970.56,0 -44.04,0 -89.96,5.34 -124.79,-13.62 -27.2,-14.81 -51.26,-41.35 -58.56,-79.51zm488.2 -344.62c12.79,4.06 38.35,11.72 50.06,13.92 15.19,-10.51 31.53,-35.32 40.62,-56.02 33.32,-75.89 0.19,-162.89 -63.61,-202.32 -43.49,-26.88 -101.84,-34.47 -153.5,-11.17 -42.23,19.04 -76.42,54.51 -90.95,102.73 -29.96,99.42 37.41,207.98 162.35,211.16 114.34,2.92 195.3,78.03 225.94,161.84 8.11,22.19 8.81,64.4 38.81,54.19 24.83,-8.45 8.66,-48.22 1.3,-68.87 -32,-89.68 -113.25,-161.74 -205.64,-182.03 -67.72,-14.87 -105.01,1.77 -150.94,-42.73 -81.35,-78.81 -15.49,-226.49 106.55,-205.79 80.16,13.59 124.28,103.96 86.15,175.66 -16.5,31.03 -26.82,32.84 -47.14,49.43zm355.49 146.24c-13.17,3.13 -24.24,16.38 -17.77,33.89 5.66,15.34 18.89,15.86 38.27,15.81 39.58,-0.11 313.48,2.12 326.89,-0.75 13.07,-2.79 24.12,-16.88 17.59,-33.94 -5.81,-15.18 -20.45,-15.87 -38.46,-15.81 -38.15,0.11 -314.78,-1.98 -326.52,0.8zm-1.98 -335.02c-23.08,7.59 -23.39,40.24 -0.7,47.73 9.62,3.17 234.24,2.62 242.34,0.34 21.11,-5.93 24.3,-39.63 2.36,-47.67 -10.2,-3.74 -237.37,-2.57 -244,-0.39zm3.18 167.27c-26.01,6.21 -27.41,37.78 -6.06,47.36 9.8,4.4 139.9,2.33 161.16,2.33 16.92,0 69.92,2.14 82.78,-0.98 22.55,-5.46 23.94,-39.09 3.21,-47.5 -9.46,-3.84 -139.43,-2 -160.23,-2 -16.37,0 -69.07,-2.02 -80.86,0.8zm-486.06 89.08l-35.62 -20.38c-12.02,-8.33 -9.98,-9.36 -36.86,5.66 -124.78,69.74 -178.39,239.33 -114.54,220.58 23.26,-6.83 8.08,-46.85 55.77,-112.74 23.1,-31.92 55.38,-59.77 91.27,-77.16 11.8,-5.72 29.04,-10.21 39.98,-15.96zm467.56 -550.63c-66.16,3.59 -141.33,0.42 -208.47,0.42 -138.82,0 -277.65,0 -416.47,0 -70.06,0 -128.13,-7.64 -179.11,27.03 -36.67,24.94 -72.61,67.62 -74.32,133.83 -1.77,68.54 -0.08,139.47 -0.08,208.27 0,138.22 0.01,276.44 0,414.66 0,37.37 0.89,59.66 14.63,90.42 10.13,22.68 28.23,46.07 44.57,58.64 55.5,42.69 88.49,38.01 170.78,38.01l1039.36 0.01c70.63,0.04 113.76,-23.95 144.16,-62.85 40.71,-52.1 35.11,-96.69 35.11,-173.12l0 -416.47c0,-49.92 5.53,-158.53 -6.58,-199.9 -15.01,-51.26 -53.53,-90.6 -100.18,-107.95 -20.93,-7.78 -133.19,-35.75 -164.22,-43.9 -109.77,-28.83 -219.1,-57.52 -328.65,-86.07 -110.5,-28.79 -219.41,-57.37 -330.39,-86.46 -83.62,-21.91 -161.97,-55.62 -240.9,14.26 -42.35,37.49 -13.26,56.8 1.21,57.73 23.4,1.5 23.91,-23.31 64.41,-40.94 31.94,-13.9 55.05,-10.21 88.28,-1.64 55.24,14.25 109,28.46 163.92,42.59 54.98,14.14 110.42,28.37 165.13,42.81 27.28,7.2 54.8,14.19 81.94,21.32 19.24,5.06 67.25,15.17 81,22.1 -23.54,-0.27 -483.67,-58.77 -538.77,-65.73 -34.33,-4.34 -74.37,-11.2 -107.8,-12.97 -77.95,-4.14 -131.78,38.31 -160.28,79.85 -10.36,15.1 -8.57,33.96 7.92,41.03 21,9.01 30.43,-7.76 38.24,-18.45 49.16,-67.39 117.08,-51.66 181.54,-43.64 35.69,4.45 71.47,8.28 106.68,13.08 47.76,6.51 416.16,48.81 427.35,54.03z"/>
 </g>
</svg>
