<svg id="Layer_1" enable-background="new 0 0 53 53" height="512" viewBox="0 0 53 53" width="512" xmlns="http://www.w3.org/2000/svg"><g id="_x39_8"><path d="m39.0839081 45.0465813c-.7604866-.0500183-1.4509201-.370224-1.9611855-.8905678v.3402367c0 1.1106796-.8905716 2.0012512-2.0012512 2.0012512h-23.5047264c-1.1006622 0-2.0012493-.8905716-2.0012493-2.0012512v-30.1988459c0-1.1007233.9005871-2.0012493 2.0012493-2.0012493h3.0126848c-.029438.2278643-.0608292.4555454-.0608292.6904335 0 1.1106787.9005861 2.0012493 2.0012503 2.0012493h13.5985165c1.1106777 0 2.0012493-.8905706 2.0012493-2.0012493v-.0200319c0-.2262764-.038353-.4476671-.0666924-.6704016h3.0185471c1.1106796 0 2.0012512.900526 2.0012512 2.0012493v15.1994925c1.270752.110054 2.3214569 1.0006256 2.6316452 2.2413902l.1300278.5302982c.3302231-.3802414.7604828-.6704006 1.2408257-.8404903v-20.3527336c0-1.5309238-1.2408257-2.7817049-2.7817688-2.7817049h-8.9277535c-.4942646-.275135-1.0326271-.4783258-1.6087914-.5903955v-.7604847c.0000001-2.4415269-1.9812793-4.4427762-4.4427757-4.4427762-2.4415283 0-4.4327602 2.0012493-4.4327602 4.4427762l-.0200329.7604847c-.5701199.1090159-1.0988312.3180699-1.5854015.5903955h-8.9411898c-1.5209694 0-2.7717505 1.2507811-2.7717505 2.7716885v36.6629028c.0000001 1.5309877 1.2507811 2.7717523 2.7717505 2.7717523h29.7385979c1.6610107 0 3.0018768-1.3408623 3.0018768-3.001873v-3.1319618c-.5203476.4302635-1.1807327.6804161-1.8811798.6804161z"/><path d="m14.0908241 41.026432c0 .5525932.4480333 1.0006256 1.0006247 1.0006256h14.749444c.5525894 0 1.0006237-.4480324 1.0006237-1.0006256 0-.5525894-.4480343-1.0006218-1.0006237-1.0006218h-14.749444c-.5525913 0-1.0006247.4480324-1.0006247 1.0006218z"/><path d="m28.7366867 19.8779755c.5525913 0 1.0006256-.4480324 1.0006256-1.0006237s-.4480343-1.0006256-1.0006256-1.0006256h-10.7401028c-.5525913 0-1.0006256.4480343-1.0006256 1.0006256s.4480343 1.0006237 1.0006256 1.0006237z"/><path d="m31.6388893 22.3057613h-16.5440206c-.5525904 0-1.0006247.4480343-1.0006247 1.0006256s.4480343 1.0006237 1.0006247 1.0006237h16.5440216c.5525932 0 1.0006256-.4480324 1.0006256-1.0006237s-.4480334-1.0006256-1.0006266-1.0006256z"/><path d="m31.6388893 26.7347965h-16.5440206c-.5525904 0-1.0006247.4480343-1.0006247 1.0006237 0 .5525913.4480343 1.0006256 1.0006247 1.0006256h16.5440216c.5525932 0 1.0006256-.4480343 1.0006256-1.0006256-.000001-.5525894-.4480334-1.0006237-1.0006266-1.0006237z"/><path d="m32.6395149 32.169342c0-.5525913-.4480324-1.0006256-1.0006256-1.0006256h-16.5469513c-.5525913 0-1.0006256.4480343-1.0006256 1.0006256 0 .5525894.4480343 1.0006256 1.0006256 1.0006256h16.5469513c.5525932.0000001 1.0006256-.4480361 1.0006256-1.0006256z"/><path d="m25.8383923 35.5933533h-10.7469435c-.5525913 0-1.0006247.4480362-1.0006247 1.0006256s.4480333 1.0006256 1.0006247 1.0006256h10.7469435c.5525913 0 1.0006256-.4480362 1.0006256-1.0006256s-.4480343-1.0006256-1.0006256-1.0006256z"/><path d="m46.3863792 36.1127205h-1.8966942l-1.509243-2.3930931c-.2022743-.3214912-.5652924-.4968948-.94981-.4617157-.3786545.0395775-.7020988.2902222-.834507.6468887l-1.7686806 4.7651825-1.6167336-6.4420128c-.1065102-.4260464-.4783249-.7323895-.9165878-.7558403-.4333763-.0210094-.8398781.2413616-.9923172.6527519l-2.0637894 5.5908928-.7030754-1.1305885c-.1822433-.2936401-.5037346-.4724655-.8496513-.4724655h-2.4429321c-.5525913 0-1.0006237.4480362-1.0006237 1.0006256s.4480324 1.0006256 1.0006237 1.0006256h1.8869209l1.489212 2.3955383c.201786.3244209.5687141.5091057.9507866.4675751.3801193-.0390854.7050323-.2907066.8374367-.6493301l1.6509323-4.4725189 1.6142921 6.4322395c.1065102.42556.4778366.7319031.9156113.7558441.4496765.0236664.8440704-.2498627.9928055-.6507988l2.1874008-5.8928375.7235947 1.1471977c.1832199.2907104.502758.4670906.8462334.4670906h2.4487953c.5525894 0 1.0006256-.4480362 1.0006256-1.0006256s-.4480361-1.0006256-1.0006256-1.0006256z"/></g></svg>