<?xml version="1.0" encoding="UTF-8"?>
<!DOCTYPE svg PUBLIC "-//W3C//DTD SVG 1.1//EN" "http://www.w3.org/Graphics/SVG/1.1/DTD/svg11.dtd">
<!-- Creator: CorelDRAW -->
<svg xmlns="http://www.w3.org/2000/svg" xml:space="preserve" width="0.734461in" height="0.733374in" version="1.1" style="shape-rendering:geometricPrecision; text-rendering:geometricPrecision; image-rendering:optimizeQuality; fill-rule:evenodd; clip-rule:evenodd"
viewBox="0 0 337.38 336.88"
 xmlns:xlink="http://www.w3.org/1999/xlink"
 xmlns:xodm="http://www.corel.com/coreldraw/odm/2003">
 <defs>
  <style type="text/css">
   <![CDATA[
    .fil0 {fill:#0074FF}
   ]]>
  </style>
 </defs>
 <g id="Layer_x0020_1">
  <metadata id="CorelCorpID_0Corel-Layer"/>
  <path class="fil0" d="M16.22 132.65c24.7,31.94 53.15,29.68 87.5,29.68 19.5,0 39.48,0.42 58.92,-0.05 0,-19.13 0,-38.25 0,-57.38 0,-32.86 2.42,-62.83 -27.78,-87.03 -14.08,-11.29 -22.07,-13.39 -37.52,-16.8 -1.1,-0.24 0.14,0.1 -1.31,-0.32l-1.96 -0.74 -23.02 0c-6.1,2.97 -30.62,-0.48 -55.77,31.02 -21.45,26.87 -19.56,75.13 0.94,101.63zm229.75 204.23l15.04 0c10.17,-3.57 24.45,2.84 52.62,-21.41 8.46,-7.28 16.98,-22.44 20.34,-34.75 6.44,-23.59 3.24,-57.87 -12.74,-76.29 -5.58,-6.43 -7.96,-9.19 -14.83,-14.27 -25.12,-18.6 -40.94,-15.59 -72.47,-15.59 -19.68,0 -39.36,0 -59.04,0 0,19.39 0,38.79 0,58.18 0,18.96 -1.79,36.83 4.45,53.81 8.13,22.12 23.27,35.82 42.74,44.57 11.36,5.11 19.53,4.25 23.89,5.75zm-53 -73.5c0,25.56 19.89,45.46 38.65,52.07 12.24,4.32 27.51,4.05 40.77,1.73 37.86,-6.61 55.62,-48.93 42.55,-86.54 -4.22,-12.15 -11.13,-20.03 -19.29,-25.92 -9.76,-7.04 -18.33,-12.09 -34.15,-12.09l-68.55 0 0.02 70.74zm136.54 -218.81c-19.54,-42.13 -53.65,-41.08 -61.18,-44.57l-23.32 0c-3.43,1.51 -11.59,1.2 -22.92,5.77 -19.62,7.9 -34.6,23.54 -42.68,44.64 -6.35,16.59 -4.52,34.91 -4.52,53.73 0,19.4 0,38.8 0,58.2 19.42,0 38.85,0 58.27,0 30.79,0 47.39,2.8 72.56,-14.78 11.3,-7.89 20.19,-19.75 25.38,-32.8 8.8,-22.1 8.43,-48.58 -1.59,-70.19zm-136.54 99.68c21.06,0 42.12,-0.02 63.17,0 11.87,0.01 17.02,-0.16 27.06,-4.64 44.51,-19.85 44.32,-76.54 18.72,-104.22 -9.71,-10.5 -25.16,-17.57 -45.79,-17.25 -29.74,0.47 -47.75,11.17 -58.61,35.82 -4.48,10.17 -4.56,15.2 -4.56,27.19 0.01,21.03 0,42.06 0,63.09zm-184.18 151.25c23.58,42.54 59.14,38.71 66.36,41.38l18.95 0 11.51 -2.75c17.81,-4.66 32.03,-14.79 42.6,-29.36 16.45,-22.67 14.45,-44.26 14.45,-72.01 0,-19.38 0,-38.76 0,-58.13 -18.69,-0.46 -37.88,-0.05 -56.62,-0.05 -35.03,0 -62.12,-2.58 -87.76,27.12 -4.22,4.89 -7.68,10.55 -10.89,17.42 -9.87,21.17 -10.2,55.43 1.41,76.38zm135.78 -102.86c-21.02,0 -42.03,0.03 -63.05,0 -11.13,-0.01 -17.73,0.61 -27.27,4.42 -15.91,6.36 -24.52,17.08 -31.3,31.49 -4.25,9.05 -4.68,16.08 -4.46,27.17 0.48,23.86 5.34,33.25 17.17,45.85 28.42,30.27 108.81,25.16 108.92,-45.85 0.03,-21.03 -0.01,-42.06 -0.01,-63.09zm0 -48.39c0,-21.03 -0.02,-42.06 0,-63.09 0.04,-38.55 -25.88,-63.91 -63.05,-62.98 -28.83,0.72 -48.05,11.97 -58.67,35.74 -3.9,8.74 -4.5,16.91 -4.36,27.24 0.31,22.51 5.22,34.09 17.03,45.99 11.27,11.35 24.1,17.12 46,17.1 21.02,-0.02 42.03,0 63.05,0z"/>
 </g>
</svg>
