<?xml version="1.0" encoding="utf-8"?>
<!-- Generator: Adobe Illustrator 27.4.0, SVG Export Plug-In . SVG Version: 6.00 Build 0)  -->
<svg version="1.1" id="Layer_1" xmlns="http://www.w3.org/2000/svg" xmlns:xlink="http://www.w3.org/1999/xlink" x="0px" y="0px"
	 viewBox="0 0 287.9 100.4" style="enable-background:new 0 0 287.9 100.4;" xml:space="preserve">
<style type="text/css">
	.st0{fill:#FFFFFF;}
	.st1{fill:#74E7C7;}
</style>
<path class="st0" d="M133.9,97.7h-20.2L106.1,75c-2.9-9.3-4.6-14.7-5.5-19.4h-0.8C99,60.7,97.3,65.7,94.3,75l-7.6,22.7H66.5
	L45.9,28.2l21.5,5.1l0,0L75,63.2c0.8,4.2,2.1,10.1,2.9,15.2h0.8c0.4-4.6,2.1-11,3.4-15.2l8.4-25.7h20.2l8.4,25.7
	c1.3,4.2,2.9,10.1,3.4,15.2h0.8c0.4-4.6,1.7-11,2.9-15.2l7.2-29.9l0,0l21.1-5.1l-1.7,5.1L133.9,97.7z"/>
<path class="st0" d="M161.8,28.2l18.5,5.1v64.4h-18.5V28.2z"/>
<path class="st1" d="M195.5,13.2c0,5.9-4.2,10.1-10.1,10.1s-10.5-4.2-10.5-10.1S179,3.1,185.4,3.1C191.3,3.1,195.5,7.3,195.5,13.2z"
	/>
<path class="st0" d="M259.5,50.2c-1.3-0.8-5.1-1.4-7.6-1.4c-5.5,0-10.5,2.1-14.7,5.1v43.4h-18.5V28.2l18.5,5.1V40
	c5.9-5.9,11.8-8.4,18.1-8.4c1.3,0,3.4,0.4,4.2,0.8V50.2z"/>
<path class="st0" d="M286.4,97.7h-18.5V5.1L286.4,0V97.7z"/>
<path class="st0" d="M19.4,48.4c0-3.4,2.5-5.1,8-5.1c5.9,0,12.6,1.3,16.8,3.8l-5.9-19c-3.4-0.4-6.7-0.8-10.5-0.8
	C10.1,27.4,0,37.1,0,49.3c0,23.2,30.3,20.2,30.3,28.2c0,3.4-2.5,5.5-8.4,5.5c-8,0-16.8-2.9-21.5-6.3l-0.8,16.8
	C4.6,96.9,13.5,99,22.3,99c19.4,0,27.4-10.1,27.4-22.3C49.7,53.5,19.4,56.4,19.4,48.4z"/>
<polygon class="st0" points="208.7,97.7 190.2,97.7 190.2,33.3 208.7,28.2 "/>
</svg>
